<svg width="13" height="9" viewBox="0 0 13 9" fill="none" xmlns="http://www.w3.org/2000/svg">
<path d="M4.33349 7.04077L1.82738 4.63846C1.69234 4.50902 1.50919 4.43629 1.31821 4.43629C1.12724 4.43629 0.944088 4.50902 0.809048 4.63846C0.674009 4.76791 0.598145 4.94347 0.598145 5.12654C0.598145 5.21718 0.61677 5.30694 0.652957 5.39068C0.689144 5.47443 0.742184 5.55052 0.809048 5.61461L3.82794 8.50846C4.1096 8.77846 4.5646 8.77846 4.84627 8.50846L12.4874 1.18385C12.6224 1.0544 12.6983 0.878833 12.6983 0.695769C12.6983 0.512704 12.6224 0.337138 12.4874 0.207692C12.3523 0.0782459 12.1692 0.00552368 11.9782 0.00552368C11.7872 0.00552368 11.6041 0.0782459 11.469 0.207692L4.33349 7.04077Z" fill="#151D28"/>
</svg>
