<svg width="24" height="24" viewBox="0 0 24 24" fill="none" xmlns="http://www.w3.org/2000/svg">
<g clip-path="url(#clip0_73_1217)">
<path d="M5.34058e-05 6.24C5.34058e-05 13.88 10.1301 24 17.7601 24C19.4301 24 20.9901 23.37 22.1401 22.22L23.1401 21.07C24.3001 19.91 24.3001 17.95 23.0901 16.74C23.0601 16.71 20.6501 14.86 20.6501 14.86C19.4501 13.72 17.5601 13.72 16.3701 14.86L14.9101 16.03C11.7101 14.67 9.44005 12.39 7.98005 9.08L9.14006 7.62C10.2901 6.43 10.2901 4.53 9.14006 3.34C9.14006 3.34 7.29006 0.93 7.26006 0.9C6.05005 -0.31 4.09005 -0.31 2.88005 0.9L1.83006 1.81C0.630054 3 5.34058e-05 4.56 5.34058e-05 6.23V6.24Z" fill="#8BFFDC"/>
</g>
<defs>
<clipPath id="clip0_73_1217">
<rect width="24" height="24" fill="white" transform="matrix(-1 0 0 1 24 0)"/>
</clipPath>
</defs>
</svg>
