<svg width="20" height="21" viewBox="0 0 20 21" fill="none" xmlns="http://www.w3.org/2000/svg">
<g clip-path="url(#clip0_73_656)">
<path d="M18.475 2.01667L17.6 1.25834C16.5917 0.250007 14.9584 0.250007 13.95 1.25834C13.925 1.28334 12.3834 3.29167 12.3834 3.29167C11.4334 4.29167 11.4334 5.86667 12.3834 6.85834L13.35 8.07501C12.1334 10.8333 10.2417 12.7333 7.57503 13.8667L6.35837 12.8917C5.3667 11.9333 3.78337 11.9333 2.7917 12.8917C2.7917 12.8917 0.783367 14.4333 0.758367 14.4583C-0.249966 15.4667 -0.249966 17.1 0.7167 18.0667L1.55003 19.025C2.50837 19.9833 3.80003 20.5083 5.20003 20.5083C11.5667 20.5083 20 12.0667 20 5.70834C20 4.31667 19.475 3.01667 18.475 2.02501V2.01667ZM5.20003 18.8333C4.25003 18.8333 3.37503 18.4833 2.77503 17.875L1.9417 16.9167C1.60003 16.575 1.58337 16.0167 1.90837 15.6583C1.90837 15.6583 3.90003 14.125 3.92503 14.1C4.2667 13.7583 4.8667 13.7583 5.2167 14.1C5.2417 14.125 6.9167 15.4667 6.9167 15.4667C7.15003 15.65 7.45837 15.7 7.73337 15.5917C11.1834 14.275 13.6584 11.8083 15.0834 8.25001C15.1917 7.97501 15.15 7.65834 14.9584 7.41668C14.9584 7.41668 13.6167 5.73334 13.6 5.71667C13.2417 5.35834 13.2417 4.78334 13.6 4.42501C13.625 4.40001 15.1584 2.40834 15.1584 2.40834C15.5167 2.08334 16.075 2.09167 16.4584 2.47501L17.3334 3.23334C17.975 3.87501 18.3334 4.75001 18.3334 5.70001C18.3334 11.5 10.1917 18.8333 5.20003 18.8333Z" fill="white"/>
</g>
<defs>
<clipPath id="clip0_73_656">
<rect width="20" height="20" fill="white" transform="translate(0 0.5)"/>
</clipPath>
</defs>
</svg>
