<svg width="20" height="21" viewBox="0 0 20 21" fill="none" xmlns="http://www.w3.org/2000/svg">
<g clip-path="url(#clip0_73_216)">
<path d="M1.52497 2.01678L2.39997 1.25845C3.4083 0.250114 5.04163 0.250114 6.04997 1.25845C6.07497 1.28345 7.61663 3.29178 7.61663 3.29178C8.56663 4.29178 8.56663 5.86678 7.61663 6.85845L6.64997 8.07512C7.86663 10.8334 9.7583 12.7334 12.425 13.8668L13.6416 12.8918C14.6333 11.9334 16.2166 11.9334 17.2083 12.8918C17.2083 12.8918 19.2166 14.4334 19.2416 14.4584C20.25 15.4668 20.25 17.1001 19.2833 18.0668L18.45 19.0251C17.4916 19.9834 16.2 20.5084 14.8 20.5084C8.4333 20.5084 -3.43323e-05 12.0668 -3.43323e-05 5.70845C-3.43323e-05 4.31678 0.524965 3.01678 1.52497 2.02511V2.01678ZM14.8 18.8334C15.75 18.8334 16.625 18.4834 17.225 17.8751L18.0583 16.9168C18.4 16.5751 18.4166 16.0168 18.0916 15.6584C18.0916 15.6584 16.1 14.1251 16.075 14.1001C15.7333 13.7584 15.1333 13.7584 14.7833 14.1001C14.7583 14.1251 13.0833 15.4668 13.0833 15.4668C12.85 15.6501 12.5416 15.7001 12.2666 15.5918C8.81663 14.2751 6.34163 11.8084 4.91663 8.25012C4.8083 7.97512 4.84997 7.65845 5.04163 7.41678C5.04163 7.41678 6.3833 5.73345 6.39997 5.71678C6.7583 5.35845 6.7583 4.78345 6.39997 4.42511C6.37497 4.40011 4.84163 2.40845 4.84163 2.40845C4.4833 2.08345 3.92496 2.09178 3.54163 2.47511L2.66663 3.23345C2.02497 3.87511 1.66663 4.75011 1.66663 5.70011C1.66663 11.5001 9.8083 18.8334 14.8 18.8334Z" fill="white"/>
</g>
<defs>
<clipPath id="clip0_73_216">
<rect width="20" height="20" fill="white" transform="matrix(-1 0 0 1 20 0.5)"/>
</clipPath>
</defs>
</svg>
