<svg width="51" height="50" viewBox="0 0 51 50" fill="none" xmlns="http://www.w3.org/2000/svg">
<path fill-rule="evenodd" clip-rule="evenodd" d="M8.09131 0C3.67303 0 0.0913086 3.58172 0.0913086 8V42C0.0913086 46.4183 3.67303 50 8.09131 50H42.0913C46.5096 50 50.0913 46.4183 50.0913 42V8C50.0913 3.58172 46.5096 0 42.0913 0H8.09131ZM29.1126 13.5288C28.4963 13.5112 27.7826 13.5037 26.3763 13.5L23.8063 13.5013C22.8946 13.4982 21.9828 13.5078 21.0713 13.53L20.8288 13.5375C20.5488 13.5475 20.2713 13.56 19.9388 13.575C18.6076 13.6375 17.7013 13.8475 16.9038 14.1562C16.0702 14.47 15.3152 14.9618 14.6913 15.5975C14.0535 16.2213 13.5602 16.9774 13.2463 17.8125C12.9376 18.61 12.7276 19.5163 12.6651 20.8475L12.6645 20.8609C12.6497 21.1874 12.6374 21.46 12.6276 21.7375L12.6188 21.98C12.597 22.8915 12.5878 23.8032 12.5913 24.715V27.285C12.5891 28.1968 12.5995 29.1085 12.6226 30.02L12.6288 30.2625C12.6399 30.5592 12.6524 30.8559 12.6663 31.1525C12.7288 32.4837 12.9388 33.3913 13.2476 34.1875C13.5616 35.0219 14.0539 35.7779 14.6901 36.4025C15.3141 37.0386 16.0696 37.5305 16.9038 37.8438C17.7013 38.1525 18.6088 38.3625 19.9388 38.425C20.2354 38.4396 20.5321 38.4525 20.8288 38.4638L21.0713 38.4712C21.9832 38.4936 22.8954 38.5031 23.8076 38.5H25.4438L26.3763 38.4987C27.7826 38.4963 28.4963 38.4875 29.1126 38.47L29.3551 38.4625C29.6518 38.4515 29.9485 38.439 30.2451 38.425C31.5751 38.3625 32.4826 38.1525 33.2788 37.8438C34.1129 37.5297 34.8688 37.0379 35.4938 36.4025C36.1302 35.7783 36.6222 35.0222 36.9351 34.1875C37.2426 33.39 37.4551 32.4837 37.5176 31.1525L37.5182 31.1385C37.5329 30.8122 37.5452 30.5398 37.5551 30.2625L37.5626 30.02C37.5848 29.1085 37.5944 28.1968 37.5913 27.285V25.6475L37.5901 24.715C37.5876 23.3088 37.5801 22.595 37.5613 21.98L37.5538 21.7375C37.5439 21.4598 37.5316 21.187 37.5169 20.8602L37.5163 20.8475C37.4538 19.5163 37.2438 18.6087 36.9351 17.8125C36.6213 16.9782 36.1294 16.2224 35.4938 15.5975C34.7988 14.9038 34.1038 14.4738 33.2788 14.1562C32.4826 13.8475 31.5751 13.6375 30.2451 13.575L30.2146 13.5736C29.8944 13.5592 29.6265 13.5472 29.3551 13.5375L29.1126 13.5288ZM20.6719 21.5806C21.844 20.4085 23.4337 19.75 25.0913 19.75C26.7489 19.75 28.3386 20.4085 29.5107 21.5806C30.6828 22.7527 31.3413 24.3424 31.3413 26C31.3413 27.6576 30.6828 29.2473 29.5107 30.4194C28.3386 31.5915 26.7489 32.25 25.0913 32.25C23.4337 32.25 21.844 31.5915 20.6719 30.4194C19.4998 29.2473 18.8413 27.6576 18.8413 26C18.8413 24.3424 19.4998 22.7527 20.6719 21.5806ZM26.5264 22.5352C26.0718 22.347 25.5846 22.2501 25.0926 22.25C24.098 22.25 23.1442 22.6451 22.4409 23.3483C21.7376 24.0516 21.3426 25.0054 21.3426 26C21.3426 26.9946 21.7376 27.9484 22.4409 28.6517C23.1442 29.3549 24.098 29.75 25.0926 29.75C25.585 29.7499 26.0726 29.6528 26.5276 29.4643C26.9825 29.2758 27.3959 28.9995 27.744 28.6512C28.0922 28.3029 28.3683 27.8895 28.5567 27.4345C28.7451 26.9795 28.842 26.4918 28.8419 25.9994C28.8419 25.5069 28.7448 25.0193 28.5562 24.5644C28.3677 24.1094 28.0914 23.6961 27.7431 23.3479C27.3949 22.9997 26.9814 22.7236 26.5264 22.5352ZM30.5502 18.3326C30.8432 18.0396 31.2407 17.875 31.6551 17.875C32.0695 17.875 32.4669 18.0396 32.7599 18.3326C33.0529 18.6257 33.2176 19.0231 33.2176 19.4375C33.2176 19.8519 33.0529 20.2493 32.7599 20.5424C32.4669 20.8354 32.0695 21 31.6551 21C31.2407 21 30.8432 20.8354 30.5502 20.5424C30.2572 20.2493 30.0926 19.8519 30.0926 19.4375C30.0926 19.0231 30.2572 18.6257 30.5502 18.3326Z" fill="#8BFFDC"/>
</svg>
