<svg width="51" height="50" viewBox="0 0 51 50" fill="none" xmlns="http://www.w3.org/2000/svg">
<path fill-rule="evenodd" clip-rule="evenodd" d="M8.09131 0C3.67303 0 0.0913086 3.58172 0.0913086 8V42C0.0913086 46.4183 3.67303 50 8.09131 50H42.0913C46.5096 50 50.0913 46.4183 50.0913 42V8C50.0913 3.58172 46.5096 0 42.0913 0H8.09131ZM13.7601 23.1925L35.9226 14.6462C36.9338 14.1888 37.9113 14.89 37.5251 16.4387L33.7513 34.2238C33.4876 35.4888 32.7263 35.7887 31.6663 35.205L25.9176 30.9587L23.1538 33.6462C23.1435 33.6562 23.1332 33.6661 23.1231 33.676C22.8147 33.9741 22.5592 34.2213 22.0026 34.2213L22.3951 28.3563L22.3926 28.355H22.3951L33.0613 18.7288C33.5288 18.3137 32.9601 18.11 32.3376 18.4888L19.1726 26.795L13.4826 25.02C12.2563 24.6437 12.2476 23.8 13.7601 23.1925Z" fill="#8BFFDC"/>
</svg>
