<svg width="51" height="50" viewBox="0 0 51 50" fill="none" xmlns="http://www.w3.org/2000/svg">
<path fill-rule="evenodd" clip-rule="evenodd" d="M8.09131 0C3.67303 0 0.0913086 3.58172 0.0913086 8V42C0.0913086 46.4183 3.67303 50 8.09131 50H42.0913C46.5096 50 50.0913 46.4183 50.0913 42V8C50.0913 3.58172 46.5096 0 42.0913 0H8.09131ZM29.5163 13.75C29.516 15.0468 29.9868 16.2995 30.8413 17.275C32.5413 19.2375 34.8913 19.125 34.8913 19.125V22.9875C32.963 22.9908 31.0826 22.3873 29.5163 21.2625V29.125C29.5163 33.0625 26.3288 36.25 22.4038 36.25C18.7413 36.25 15.2913 33.2875 15.2913 29.125C15.2913 24.85 19.0663 21.5 23.3788 22.075V26.025C21.2413 25.3625 19.1663 26.975 19.1663 29.125C19.1663 30.925 20.6413 32.375 22.4163 32.375C23.2556 32.3749 24.0621 32.0491 24.666 31.4662C25.2699 30.8833 25.624 30.0888 25.6538 29.25V13.75H29.5163Z" fill="#8BFFDC"/>
</svg>
