<svg width="372" height="109" viewBox="0 0 372 109" fill="none" xmlns="http://www.w3.org/2000/svg">
<path d="M337.128 52.1882C337.072 51.7642 337.411 51.4533 337.609 51.1141C337.694 50.9163 337.637 50.6336 337.75 50.5488C337.863 50.4923 338.146 50.5771 338.4 50.7749C338.429 50.6054 338.344 50.5771 338.202 50.4923C338.033 50.3792 338.146 50.0683 338.061 49.8705C337.835 49.3052 338.315 48.9094 338.683 48.5137C339.022 48.1746 339.333 47.7788 339.729 47.5245C340.181 47.2701 340.718 47.0722 340.124 46.5634C340.237 46.5069 340.351 46.4504 340.464 46.3939C339.955 46.2808 339.276 45.2067 339.305 44.6979C339.333 44.274 339.898 44.7262 340.153 44.5849C340.351 44.4718 340.548 44.3022 340.69 44.1044C340.859 43.85 341.283 43.9348 341.538 43.9348C342.131 43.9348 342.697 43.8783 343.29 43.85C343.799 43.8217 344.195 44.0196 344.675 44.1326C344.901 44.1892 345.664 44.1044 345.834 44.3022C346.004 44.5001 346.173 44.698 346.456 44.6132C346.71 44.5284 346.88 44.7545 347.106 44.811C347.162 44.4718 347.276 44.6697 347.558 44.6414C347.784 44.6131 347.954 44.6132 348.152 44.7262C348.265 44.8393 348.463 44.6697 348.604 44.7262C348.745 44.7827 348.745 45.0089 348.915 45.0937C348.858 44.6697 349.339 44.5284 349.65 44.6979C349.961 44.8675 349.961 45.348 350.441 45.0089C350.554 44.8958 350.667 44.8958 350.837 44.9806C351.035 45.0654 351.289 44.8675 351.515 44.9241C351.657 44.9523 352.278 45.659 352.363 45.2915C352.448 44.811 352.052 44.6697 352.335 44.1609C352.505 43.7935 352.844 43.3412 353.296 43.5673C353.352 43.5956 353.635 43.4543 353.692 43.4543C353.918 43.3978 354.2 43.3978 354.427 43.4543C354.822 43.5391 355.246 43.6804 355.331 42.9173C356.377 43.0586 356.151 43.0868 356.829 42.8607C357.168 42.8607 357.507 43.0868 357.847 42.889C358.073 42.7759 358.412 43.1716 358.497 43.3695C358.808 44.0761 359.147 43.8783 359.345 44.274C359.203 44.3588 358.892 44.3588 358.779 44.5001C358.723 44.5566 359.401 45.235 359.09 45.4046C359.345 45.5176 360.023 45.7438 360.334 45.5742C360.701 45.3763 360.899 45.9699 361.295 45.9416C361.295 46.0547 361.125 46.1112 361.804 47.3831C362.115 47.694 362.397 47.3831 362.623 47.3549C363.019 47.3266 363.387 47.7506 363.867 47.8919C364.15 47.8636 364.545 47.5245 365.139 47.3831C365.478 47.2983 365.733 47.6093 365.846 47.8354C366.015 48.2311 366.552 48.3159 366.665 48.6268C367.146 48.3724 366.92 48.1746 367.513 48.4855C367.796 48.6268 368.616 48.966 368.842 48.6833C369.068 49.1073 369.407 48.8529 369.633 49.1356C369.775 49.2769 369.972 49.3617 370.142 49.4182C370.453 49.503 370.538 49.2486 370.792 49.3334C370.509 49.6161 371.131 50.2096 370.622 50.5771C370.481 50.6901 370.142 50.6336 370.255 50.9163C370.425 51.2554 370.792 50.8315 370.82 51.2837C370.566 51.1989 370.17 51.425 370.283 51.736C370.34 51.8207 371.103 52.1034 370.707 52.3861C370.792 52.4426 370.877 52.4708 370.99 52.4426C371.046 52.6122 370.849 53.2623 370.764 53.4036C370.538 53.771 369.972 53.4601 369.577 53.5167C369.379 53.5732 369.181 53.4319 368.955 53.5449C368.785 53.658 368.757 53.9124 368.474 54.0254C367.655 54.5059 368.022 54.8451 368.135 54.8451C367.994 54.9864 368.135 55.2126 367.966 55.3256C367.711 55.4669 367.146 55.3256 366.863 55.3821C366.581 55.4104 366.552 55.7213 366.27 55.7496C365.93 55.7779 365.535 55.9475 365.45 56.2866C365.309 56.0322 364.941 56.0605 364.715 56.2018C364.319 56.3997 364.065 56.3149 363.641 56.428C362.963 56.6258 362.85 57.5868 362.171 57.7564C362.199 57.6434 363.16 56.9085 362.397 56.7954C362.68 57.1911 362.143 57.2759 361.917 57.4172C361.832 57.4738 362.058 58.1804 362.058 58.2652C362.002 58.0673 361.662 57.7847 361.634 57.8695C361.606 57.813 361.889 57.6716 361.521 57.502C361.267 58.6609 360.871 57.4455 361.295 57.7564C361.323 57.5303 361.295 57.2476 361.295 57.5303C361.323 57.5586 361.21 57.5868 361.125 57.5586C361.012 57.5586 360.899 57.3607 360.871 57.6999C360.928 57.6999 360.532 57.2476 360.532 57.2759C360.56 57.4738 360.73 57.6151 359.627 57.4172C359.684 57.5303 359.938 57.7282 360.221 57.8977C360.249 57.7847 360.391 57.6716 360.56 58.0673C360.475 57.4172 361.38 58.4348 361.408 58.0391C361.408 58.0673 361.549 58.2652 361.267 58.4913L361.662 58.2652C361.521 58.463 362.341 58.8305 362.397 58.8588C362.765 59.3393 362.143 59.4241 363.132 59.7067C363.076 59.5371 362.228 58.6609 362.397 58.8022C362.539 58.9436 362.878 59.2545 363.019 59.3393C363.16 59.4241 363.302 59.4806 363.415 59.5089C363.556 59.5371 363.641 59.5371 363.726 59.5089C363.839 59.4523 363.895 59.3675 363.924 59.2545C364.15 59.5089 364.291 59.4241 364.545 59.2827C364.885 59.1131 365.28 59.2827 365.563 59.5089C365.224 59.5654 365.252 59.7067 365.252 59.9894C365.252 60.3003 364.941 60.3003 364.687 60.3285C364.432 60.3568 364.263 60.3568 364.037 60.2155C363.867 60.1307 363.669 59.9894 363.471 60.0742C363.302 60.1307 363.387 60.3285 363.274 60.3568C363.019 60.4699 362.85 60.7525 362.567 60.7808C362.171 60.8373 361.832 60.809 361.521 61.12C361.012 61.6287 360.051 62.2788 359.486 61.3178C359.882 61.4026 359.995 60.0459 359.345 59.9611C359.006 59.9046 358.836 59.7632 358.525 59.5937C358.242 59.4241 357.988 59.5371 357.705 59.5089C357.281 59.4523 358.242 58.8022 358.412 58.7457C358.695 58.6326 359.74 58.463 359.825 58.0956C359.571 58.0956 359.543 57.8412 359.543 57.6434C359.232 57.8129 359.316 57.8412 358.921 57.6716C358.61 57.502 358.186 57.6716 357.847 57.6716C357.479 57.6716 357.253 57.7282 356.886 57.5303C356.603 57.3607 356.264 57.1063 355.925 57.2194C356.97 56.7954 355.642 56.965 355.388 56.5693C356.038 56.9085 356.942 56.8237 357.507 56.3997C357.112 56.5128 356.603 56.6823 356.264 56.3714C356.009 56.117 356.207 55.6931 355.925 55.4104C356.151 55.6931 356.066 55.9757 356.094 56.2866C356.094 56.541 355.529 56.3714 355.416 56.4562C355.331 56.3149 355.331 56.1736 355.416 56.0605C355.246 56.0888 355.218 56.3149 355.133 56.428C355.02 56.5975 354.681 56.428 354.511 56.4562C353.776 56.5976 353.89 57.3042 353.466 57.7282C353.437 57.5303 353.013 56.8802 352.731 57.0781C352.844 57.389 353.296 57.4172 353.381 57.7282C353.494 58.0673 352.505 58.7174 352.25 58.8588C352.476 58.7174 352.759 58.5478 352.844 58.2652C352.561 58.2652 352.081 59.1697 352.024 58.5478C351.883 58.6892 351.713 59.1414 352.109 58.9436C352.081 59.0001 352.024 59.0849 351.968 59.1414C352.278 59.1979 352.42 59.735 352.109 59.848C352.024 58.9718 351.289 59.3675 350.893 59.4806C350.385 59.5936 350.272 59.9894 349.678 59.5937C349.593 59.5371 348.971 59.1979 349.452 59.1131C349.932 59.0283 349.791 58.7457 350.017 58.4348C350.3 58.1239 350.583 57.8412 350.526 57.3607C350.469 56.9367 350.385 56.8237 350.922 56.6541C350.978 56.7671 351.006 56.8802 351.063 57.0215C351.374 56.3714 352.222 57.4172 352.674 56.9367C352.476 56.8802 352.391 56.7106 352.194 56.6258C352.731 56.3432 351.798 55.4952 351.346 55.4387C351.459 55.2408 351.487 54.5625 351.233 54.8734C351.148 54.9864 350.865 54.195 350.809 54.1102C350.696 53.9124 350.639 53.6862 350.498 53.4601C350.13 52.8948 350.3 53.5732 349.876 53.1209C349.706 52.9231 349.254 52.5839 349.169 53.0079C349.113 52.6404 348.858 53.0927 348.802 52.7535C348.378 52.9514 347.926 52.1317 347.558 52.0186C347.276 51.9338 347.049 52.4143 346.23 52.2447C346.06 52.2165 345.862 52.2447 345.919 52.4708C345.834 52.5839 345.551 52.5556 345.382 52.6122C345.24 52.6404 345.043 52.697 344.986 52.8666C344.873 53.234 344.675 53.2057 344.279 53.234C343.827 53.2905 343.29 53.2057 342.951 53.5732C342.442 54.1667 342.16 53.4601 341.679 53.2905C341.453 53.234 341.199 53.2905 340.972 53.3188C340.661 53.3753 340.52 53.2623 340.237 53.234C339.983 53.1775 339.7 53.2623 339.446 53.0927C339.05 52.81 338.994 53.1775 338.598 53.2623C338.598 52.8383 338.174 53.0079 337.976 52.7535C337.807 52.5839 337.722 52.6687 337.581 52.5556C337.411 52.4426 337.354 52.2447 337.128 52.1882Z" fill="#8BFFDC" stroke="white" stroke-width="0.16599"/>
<path d="M2.6111 36.6988C2.46978 36.7836 2.32846 36.8401 2.15887 36.8684C2.32846 36.614 1.87622 36.3314 1.84795 36.614C1.81969 36.9532 1.28265 37.0945 1 37.1228C1.42398 36.614 2.01754 36.3596 2.63937 36.1335C2.10233 36.3031 2.63937 36.3031 2.75243 36.2466C2.95029 36.1335 3.09161 36.0204 3.31773 35.9922C3.85477 35.8508 4.10915 35.5965 4.58966 35.3986C5.6072 34.9464 6.59648 34.6354 7.69882 34.4376C7.19005 34.5507 8.2076 34.4659 8.34892 34.4376C8.06627 34.6354 7.92494 34.692 7.84015 35.0594C8.1228 35.116 8.74463 34.2115 8.85769 34.9181C8.94249 34.8898 8.99902 34.8616 9.05555 34.805C8.34892 34.2397 12.0516 33.1374 12.2495 33.0809C12.7583 32.9113 13.2388 32.7134 13.7193 32.5721C13.9737 32.4873 14.115 32.5721 14.3411 32.6004C14.6238 32.6004 14.7651 32.3177 14.9347 32.1481C15.3021 31.8089 15.924 31.6394 16.3762 31.4415C16.9415 31.1871 17.5068 30.9327 18.1569 30.8197C17.8177 31.2436 18.5526 30.9893 18.6657 30.8762C18.5244 30.961 18.383 31.0175 18.2134 30.9893C18.4396 30.8762 18.4678 30.5935 18.6657 30.424C18.8635 30.2261 19.1179 30.1413 19.344 29.9434C19.655 29.6891 20.3333 29.0955 20.7573 29.4629C20.6725 29.3216 20.5029 29.2651 20.3333 29.3781C20.3898 28.8128 21.3509 28.5585 21.7466 28.4171C22.5945 28.1345 23.2446 27.5974 24.036 27.23C23.6121 27.3431 23.2446 27.654 22.7924 27.8236C22.4532 27.9366 22.0858 27.9932 21.7183 28.1062C21.3509 28.2475 20.3898 28.6715 20.0224 28.3606C20.1637 28.2475 20.192 28.1345 20.1637 27.9932C20.1355 27.8518 20.5029 27.7105 20.5877 27.654C20.729 27.5692 21.3226 27.3431 21.1813 27.767C21.2943 27.7388 21.3509 27.6822 21.3791 27.5692C21.2095 27.5409 21.0117 27.3996 21.0682 27.2017C20.9552 27.3996 20.729 27.5409 20.5312 27.6257C20.3899 27.7105 19.5702 28.0779 20.0507 27.654C19.768 27.9084 19.231 28.1062 19.0331 28.4454C18.9201 28.6715 18.5809 29.039 18.27 28.8976C17.9873 28.7846 18.6939 27.9649 18.2134 27.9649C18.27 27.9084 18.3548 27.8801 18.4396 27.8236C18.1286 27.6822 17.8177 28.0214 17.5633 28.1062C17.5916 28.0214 17.6481 27.9366 17.7047 27.8518C17.5351 27.9084 17.3937 27.8236 17.3655 27.6822C17.422 27.654 17.5068 27.5974 17.5633 27.5692C17.1111 27.2865 15.8957 27.9932 15.3587 28.0214C14.9912 28.078 14.7086 28.3323 14.3411 28.4171C14.1998 28.4454 14.0867 28.5019 13.9454 28.5302C13.7758 28.5867 13.6345 28.3606 13.4366 28.4171C13.7476 28.1627 14.3694 28.3323 14.5955 27.9649C14.9347 27.4561 15.0477 27.5692 15.613 27.3431C15.3869 27.3148 15.1608 27.2865 14.963 27.3713C15.1608 26.7212 15.9522 26.7778 16.4327 26.4668C16.6023 26.3255 16.7154 25.8167 16.8567 25.6189C17.0546 25.308 17.3372 25.0536 17.6481 24.8557C17.4785 24.8557 17.3655 24.9123 17.2242 24.9971C17.8177 24.2904 18.7222 24.1208 19.5419 23.7534C19.3158 23.7817 19.0614 24.0078 19.1462 23.6969C19.0049 23.923 16.9698 24.7144 16.998 24.7992C17.309 25.5624 13.6345 25.7885 13.2388 25.7037C13.2953 25.4493 13.5214 25.421 13.7193 25.308C13.4084 25.2232 13.4932 24.6861 13.7193 24.5731C13.267 24.8557 12.9844 24.4035 13.578 24.2056C13.4366 24.1774 13.2953 24.1774 13.154 24.2056C13.4366 23.8382 13.9737 23.8665 14.3411 23.6686C14.4824 23.6121 14.6238 23.5555 14.7086 23.4425C14.9064 23.2446 15.076 23.3859 15.3021 23.3012C14.963 23.6403 15.3869 23.4425 15.5565 23.6403C15.6696 23.7817 14.8782 24.0078 14.7651 24.0643C15.2739 23.9795 15.7261 23.6686 16.2349 23.5838C16.1783 23.7534 16.0653 23.8947 15.924 24.0078C16.1783 24.036 16.6589 23.923 16.8567 23.7534C17.0263 23.5555 16.8002 23.4142 16.6306 23.4425C16.8284 23.3577 17.0546 23.3859 17.2524 23.3012C16.9698 23.3012 16.9698 23.2446 17.2524 23.1316C16.7719 23.1316 16.3479 23.4707 15.8392 23.386C15.5 23.3294 15.0195 23.075 14.7086 23.3012C14.7651 22.9902 15.4152 22.9054 15.6696 22.8772C15.5 22.8206 15.3587 22.8489 15.2456 22.962C15.2456 22.7924 15.3587 22.6793 15.5283 22.6228C15.3869 22.6793 15.2456 22.7359 15.1043 22.7641C15.1891 22.4815 15.5565 22.4249 15.7544 22.2836C15.2739 22.3401 14.963 23.0185 14.4542 22.9054C14.3977 22.6793 14.7368 22.6228 14.5672 22.3967C14.4259 22.2271 15.076 22.0575 15.1608 22.001C15.0477 21.8879 14.9064 21.8596 14.7651 21.9162C14.8782 21.4639 15.3869 21.6335 15.7261 21.577C15.2739 21.6052 15.7826 21.2378 16.0653 21.2378C16.4893 21.2661 17.0263 20.6725 17.422 20.5029C17.9591 20.2768 18.4961 20.0507 19.0614 19.8245C19.2027 19.768 19.4288 19.6832 19.5984 19.7115C19.8811 19.768 19.6832 19.9941 19.5419 20.0507C19.6832 20.0224 19.8245 19.9659 19.9659 19.8811C19.4006 19.7963 20.8421 19.2875 21.0117 19.231C20.7008 19.3158 20.4181 19.4571 20.1072 19.5419C20.4464 19.0614 21.4357 18.4678 22.0575 18.6657C21.7183 18.2982 22.8772 18.1569 23.0468 18.1286C23.2164 18.1286 23.4425 18.1852 23.5838 18.27C23.8665 18.4396 22.9337 18.6657 22.8489 18.7222C23.5555 18.4113 24.347 18.6092 25.0536 18.2982C25.7037 17.9873 26.4103 17.7047 27.1452 17.5351C27.0604 17.5916 26.9756 17.6481 26.9191 17.7329C27.9932 17.7612 28.9824 17.6199 29.9434 17.0828C30.3109 16.885 30.5653 16.6023 30.8762 16.3197C31.074 16.1501 31.5546 15.3304 30.8762 15.6131C31.074 15.5283 33.5614 15.1325 32.9678 14.539C33.0809 14.5107 33.1657 14.4824 33.2787 14.4824C32.9113 14.5107 32.5721 14.6803 32.2329 14.7934C31.8655 14.9064 31.498 14.7368 31.1588 14.9064C31.7241 14.7934 30.9327 15.0195 30.8762 15.0477C30.6218 15.1043 30.3674 15.1325 30.113 15.1891C29.576 15.3021 29.1238 15.6413 28.615 15.7544C28.8694 15.4435 28.9542 14.9912 28.3889 15.2173C28.4737 15.2739 28.5585 15.3304 28.615 15.3869C28.3889 15.4717 28.3041 15.6978 28.1345 15.4717C28.0214 15.3587 27.8801 15.3021 27.7388 15.2739C27.3996 15.1891 27.0604 15.2173 26.7212 15.2456C25.9581 15.3304 25.3928 15.5283 24.6013 15.3869C24.4883 15.3869 23.3577 15.1891 23.6403 14.9347C23.7534 14.8216 24.1774 14.7651 24.1208 14.539C23.9795 14.1433 24.347 13.8041 24.6861 13.7476C24.5448 13.8041 24.4035 13.8606 24.2622 13.9737C24.5165 14.1998 24.8275 14.0302 25.0818 13.8889C25.3362 13.7476 25.6189 13.8041 25.8733 13.8323C25.5341 13.4084 24.7427 13.4932 24.2622 13.4649C24.0926 13.4366 23.8664 13.1823 23.8099 13.0409C23.6969 12.8148 24.4318 12.73 24.5731 12.7017C24.3752 12.7865 24.1491 12.8431 23.923 12.8996C24.46 13.0127 24.9123 12.6735 25.3928 12.5604C25.8167 12.4474 26.2973 12.5322 26.693 12.2778C27.5126 11.6842 28.6433 12.0799 29.5477 11.8821C29.4629 11.8538 29.3781 11.7973 29.3216 11.7407C29.7456 11.2602 30.537 11.3168 31.1023 11.2885C32.0068 11.2037 32.8548 10.7797 33.7875 10.921C33.5331 10.8928 33.1939 11.2037 33.0243 11.3168C32.6569 11.5429 32.3177 11.6559 31.922 11.7973C32.1199 11.7407 32.0916 11.7973 32.1764 11.9386C32.2329 12.0799 32.5156 12.0234 32.6286 12.0234C32.883 11.9951 33.1374 11.9951 33.3918 11.9951C33.5331 11.9951 34.2397 11.9103 33.7027 12.193C34.268 11.9103 34.8898 12.2778 35.4551 12.0517C35.6813 12.0517 36.3596 11.3733 36.8401 11.7125C36.7836 11.7973 36.6988 11.8538 36.614 11.9386C36.8401 11.8538 37.0945 11.7973 37.2076 11.5429C36.8401 11.232 36.3314 11.345 35.9356 11.4863C36.1335 11.345 36.614 11.232 36.5857 10.921C36.5575 10.6384 36.2183 10.6949 36.4161 10.4405C36.7553 9.96003 37.3489 10.4688 36.8967 10.7232C35.9356 11.232 37.6316 11.1472 37.6316 11.1472C38.0555 11.5711 39.1579 11.4863 39.4123 10.8645C39.2709 10.8928 39.1013 10.921 38.96 10.9493C38.7621 10.9493 38.5926 10.7797 38.3664 10.808C38.0273 10.8645 37.6598 11.1754 37.2924 11.0341C36.7271 10.808 38.0838 10.1579 38.3664 10.1862C38.2534 9.73391 37.575 10.2144 37.575 9.93177C37.462 10.0448 37.2924 10.1014 37.1228 10.1014C37.3206 9.93177 37.5468 9.84697 37.7729 9.76218C37.5185 9.73391 37.2924 9.93177 37.0945 10.0166C36.7836 10.1296 36.19 10.0166 35.9074 9.96003C35.229 9.79044 35.7943 9.59259 36.0204 9.28167C36.3314 8.82943 36.1052 8.1228 35.5682 7.89668C35.3986 7.81188 35.116 7.86841 35.0594 7.61403C34.9746 7.27485 34.7768 7.30311 34.4659 7.27485C35.2008 7.19005 35.8226 6.85087 36.4727 6.51169C37.1793 6.11598 37.7729 6.22904 38.5643 6.14424C40.3167 6.03118 41.8148 5.63547 43.4542 5.01364C43.3128 5.09844 43.1715 5.15497 43.0302 5.23976C43.8499 5.07017 44.5565 4.42007 45.3762 4.16569C46.3372 3.88304 47.2699 3.31774 48.3158 3.20468C48.1179 3.28947 48.1179 3.4308 47.92 3.48733C48.6267 3.346 49.3616 3.31774 50.0682 3.11988C50.7183 2.92203 51.3966 2.63938 52.075 2.63938C51.8771 2.80897 51.651 2.89376 51.4249 2.89376C52.1033 2.7807 51.2836 3.09162 51.1423 3.14815C51.3966 3.06335 51.4249 3.11988 51.2271 3.346C51.4532 3.17641 51.6793 3.03509 51.9337 2.89376C52.2446 2.75243 52.612 2.8655 52.923 2.7807C52.7251 2.7807 52.499 2.7807 52.3011 2.83723C52.3859 2.58284 52.1881 2.52631 51.9902 2.61111C52.6403 2.32846 53.3752 2.27193 54.0536 2.10234C53.9122 2.15887 53.7709 2.2154 53.6296 2.27193C54.5623 2.49805 55.8625 2.18713 56.7953 1.98928C57.8976 1.70663 58.9717 1.28265 60.1023 1C59.9327 1.05653 59.7631 1.11306 59.6501 1.22612C59.7631 1.25439 60.6676 1.36745 60.4697 1.59357C60.1588 1.93275 59.4239 1.98928 59 1.96101C59.0847 2.1306 58.9434 2.27193 58.8021 2.3002C59.2261 2.18714 59.6783 2.07407 60.1023 1.93275C60.3567 1.84795 60.5828 1.73489 60.8654 1.6501C60.9785 1.62183 61.7134 1.31092 61.1764 1.70663C61.2612 1.6501 61.6003 1.53704 61.6569 1.70663C61.7699 1.98928 61.1481 2.04581 61.0068 2.04581C61.4025 2.44152 62.0808 2.1306 62.5614 2.04581C63.2114 1.96101 64.0029 1.93275 64.6812 2.10234C64.4551 2.35672 64.0877 2.41325 63.805 2.55458C63.9463 2.61111 64.0877 2.63938 64.229 2.63938C63.9181 2.66764 63.6354 2.63937 63.3528 2.69591C63.7768 2.75244 64.2007 2.69591 64.653 2.69591C64.5116 2.75244 64.3421 2.80897 64.2007 2.8655C64.5682 3.06335 64.9921 3.03509 65.3879 2.97856C65.614 2.92203 65.8684 2.8655 66.0945 2.83723C66.2358 2.83723 66.8294 2.6959 66.4337 2.95029C67.0838 2.95029 67.7339 2.75244 68.384 2.83723C68.5818 2.8655 68.8927 2.92203 69.0623 3.06335C69.3167 3.26121 69.6559 3.09162 69.9103 3.26121C70.5604 3.62865 71.2387 3.40253 71.9171 3.48733C72.1432 3.51559 72.6237 3.40253 72.7085 3.65692C72.7368 3.76998 73.3586 3.65692 73.0194 3.85478C73.3869 3.82651 73.7826 3.85478 74.1783 3.85478C74.3479 3.82651 74.5458 3.82651 74.7436 3.79824C75.0545 3.65692 75.111 3.68518 74.9132 3.85478C75.3089 3.40253 76.4112 3.57212 76.92 3.71345C77.2592 3.82651 77.344 4.16569 77.6832 4.22222C77.9376 4.30701 77.9376 4.33528 78.0789 4.50487C78.2485 4.73099 78.5029 4.44834 78.7007 4.58966L54.4775 24.6861C54.7037 24.7427 54.9298 24.8275 55.1559 24.7144C55.4103 24.6013 55.5799 24.8275 55.8343 24.8557C56.1169 24.884 56.4561 24.6579 56.7387 24.6013C57.0497 24.5166 57.3888 24.5166 57.728 24.5731C57.5019 24.7709 57.1627 24.8557 57.0214 25.1101C56.8518 25.3928 57.2475 25.4493 57.2193 25.732C57.191 26.1277 57.4171 26.4668 57.5302 26.8343C57.6715 27.1735 57.304 27.4844 57.1627 27.767C57.8693 27.5127 58.6042 27.3996 59.2826 27.0887C59.5935 26.9473 59.8762 26.7778 60.1023 26.5516C60.2154 26.5234 60.3284 26.4951 60.4132 26.4951C60.5545 26.4386 60.5828 26.2973 60.6959 26.2125C60.922 26.0994 61.1764 26.1277 61.4308 26.0711C61.6851 26.0429 62.3352 25.7319 62.5614 25.8167C63.381 26.2125 62.0808 26.6082 62.4766 26.9756C62.5614 27.0887 62.8157 27.1735 62.7309 27.3713C62.6461 27.5409 62.5331 27.8801 62.7027 28.0214C63.2114 28.4737 62.8723 28.728 62.7875 29.2086C62.7027 29.6891 62.5614 30.1413 62.5331 30.6218C62.4766 30.9045 62.5331 31.3567 62.307 31.5828C62.1939 31.7524 61.9113 31.9785 62.2787 32.0916C61.9113 32.2612 61.883 32.7134 61.8265 33.0243C62.1939 32.9678 62.7875 33.3918 63.0419 33.6179C63.3245 33.844 63.268 34.2397 63.7485 34.1832C63.6072 34.5507 63.2962 34.6637 62.9853 34.8616C62.5896 35.116 62.5048 35.5682 62.2222 35.8508C61.6003 36.4727 60.5263 36.9532 59.7914 37.2641C59.9044 37.1228 60.0175 36.9814 60.1306 36.8401C59.961 37.0097 59.7348 37.1793 59.5087 37.2358C59.6501 36.5575 60.8089 36.2466 61.3742 35.9922C61.2046 36.0204 59.9327 36.6705 60.0175 36.2748C60.074 36.0204 60.922 36.0204 61.0916 36.0204C60.9502 35.9922 60.8089 35.9922 60.6676 35.9922C60.8937 35.6813 61.459 35.2855 61.4873 34.8616C61.5155 34.3528 61.7417 34.4093 62.1091 34.1549C61.6286 34.2963 61.1764 34.5789 60.6676 34.5789C60.8089 34.5224 60.922 34.4659 61.0633 34.4376C60.922 34.4941 59.961 34.6355 59.9892 34.7768C60.0175 35.0029 59.8762 34.9746 59.7066 35.116C59.4805 35.3138 59.4805 35.0877 59.2826 35.3703C59.1695 35.5117 58.7738 35.5117 58.9152 35.2855C59.0848 35.0312 59.3957 34.8616 59.6501 34.7202C59.9327 34.5507 60.2154 34.3811 60.4415 34.1267C60.6393 33.8723 61.035 34.0136 61.3177 33.9571C61.0633 33.9006 60.8089 33.9571 60.7524 33.6462C60.7524 33.844 60.3849 34.2115 60.1588 34.0702C59.8762 33.844 60.3849 33.4201 60.5263 33.307C60.498 33.4483 60.5545 33.5614 60.7241 33.5614C60.6393 33.3918 60.6393 33.2222 60.7524 33.0809C60.6959 33.0526 60.6111 33.0243 60.5263 32.9961C60.7807 32.9113 60.8937 32.6286 61.1481 32.5721C60.9502 32.6286 60.7807 32.6852 60.6393 32.4873C60.498 32.1764 60.8937 32.2329 60.9502 31.9785C60.7524 32.1481 60.4697 31.9785 60.5263 31.7242C60.2436 32.0068 59.9327 31.6959 60.3284 31.498C60.5828 31.3567 60.922 31.4415 61.2046 31.3284C61.0068 31.3567 60.7807 31.4132 60.5828 31.3567C60.922 31.2436 60.6676 30.8479 61.1198 30.8197C60.8937 30.8762 60.8089 30.6218 61.035 30.537C61.2046 30.4522 61.4308 30.7349 61.5155 30.8479C61.6003 30.6218 61.2612 30.5088 61.346 30.3109C61.459 29.9435 61.9678 30.0848 62.2222 30.1696C61.8547 29.9152 61.4873 30.0565 61.1764 30.3109C61.0068 30.0565 61.6003 29.6325 61.8265 29.5477C61.6851 29.576 61.2046 29.9717 61.1481 29.8021C61.0633 29.6043 61.2612 29.4347 61.3742 29.3216C61.7134 29.039 62.1656 28.7563 62.5896 28.6433C62.1939 28.615 61.7699 28.9259 61.4873 29.1803C61.0916 29.5477 60.9502 29.039 60.5545 28.9824C60.7241 28.8411 60.7241 28.615 60.7807 28.4171C60.8372 28.2475 61.0916 28.1627 61.1764 28.0214C60.7241 28.4171 61.2329 27.4561 61.3177 27.3431C61.5438 27.0604 61.7982 26.7495 62.0809 26.5516C61.9113 26.6364 61.7699 26.7778 61.6003 26.8343C61.3177 26.9756 61.5155 27.0604 61.3177 27.2865C61.2329 26.8626 60.9502 27.4561 60.8089 27.654C60.6676 27.9084 60.3284 28.2475 60.2436 28.5302C60.1306 28.8694 59.8762 29.2368 59.5087 29.3216C59.1695 29.3781 59.3674 28.9824 59.4522 28.8694C59.2826 29.0672 58.8586 28.9542 58.6042 28.9542C59 28.4737 59.2826 27.9649 59.9327 27.8518C59.7631 27.7388 59.5935 27.767 59.4805 27.9084C59.8196 27.3713 59 28.1062 58.9152 28.1345C58.576 28.2193 58.7738 27.7105 58.6608 27.5692C58.6042 27.8518 58.2933 27.7388 58.2368 27.5126C58.1237 27.7953 57.6998 27.8518 57.4736 27.9649C57.7563 27.8518 58.0107 27.9366 58.3216 27.9084C58.2368 28.078 58.1237 28.5302 58.4912 28.2193C58.3499 28.3323 58.2085 28.4171 58.0672 28.4454C58.2368 28.4454 58.5194 28.2758 58.576 28.5867C58.3781 28.5867 58.4347 28.6715 58.4064 28.8128C58.3781 29.039 57.9259 29.1238 57.7563 29.152C58.0672 28.7846 57.5867 28.9259 57.4454 29.0107C57.9541 28.9542 57.4171 29.0672 57.304 29.0672C57.1062 29.0672 57.0779 29.3499 56.8235 29.3499C57.0779 29.039 55.7212 28.6998 56.3713 28.3889C56.0604 28.4737 56.0321 28.1345 56.0886 27.9366C56.1734 27.6257 56.0321 27.3996 55.6647 27.3431C55.7777 27.2583 55.8908 27.2017 56.0321 27.1735C55.6929 27.1452 55.0994 27.23 55.1276 26.7212C54.8733 26.9191 54.7602 26.5516 54.5623 26.4668C54.7885 26.2407 55.1276 26.2125 55.3538 25.9863C55.5233 25.8167 55.6364 25.5624 55.9191 25.4493C56.5692 25.1949 55.6647 26.1559 55.6647 26.1842C55.8908 25.9015 56.3148 25.5058 56.7105 25.7602C56.5126 25.6472 56.3148 25.2514 56.0604 25.3362C55.7212 25.421 55.382 25.6472 55.0146 25.7602C54.1949 25.9863 53.4317 26.0429 52.6403 25.6189C52.8382 25.4776 53.1773 25.421 53.2056 25.1101C52.8947 25.0819 52.6968 25.421 52.3294 25.3645C51.8489 25.2797 51.3684 25.1667 50.8879 25.0819C50.0399 24.9405 49.1354 25.5906 48.3158 25.2514C48.8528 25.1949 47.8352 24.6296 47.6374 24.6579C48.0048 24.1774 48.6832 24.1208 49.1637 23.7251C48.5701 23.8099 48.0896 24.1774 47.5526 24.3752C47.4113 24.4318 47.1286 24.5731 46.9873 24.5166C46.7894 24.46 46.6764 24.2339 46.422 24.2904C46.6764 24.0926 46.9873 23.9795 47.2982 23.8382C47.1851 23.8665 46.2807 24.036 46.846 23.7817C46.6198 23.8382 46.3937 23.8665 46.1959 23.923C46.3655 23.7817 46.5916 23.7251 46.8177 23.6686C46.4785 23.6403 46.1111 23.8382 45.7719 23.7534C46.0828 23.5555 46.5916 23.4142 46.9308 23.4707C46.7046 23.3012 46.3655 23.6121 46.1393 23.4425C45.8567 23.2164 47.0438 22.8772 47.2982 22.9054C47.0156 22.6511 46.4785 22.8772 46.1959 23.0185C45.8284 23.2164 45.3479 23.1881 44.9522 23.3294C45.0087 23.2446 45.0653 23.1881 45.1218 23.1316C44.9805 23.1598 44.8391 23.2164 44.6978 23.3012C44.8674 23.075 45.1501 22.962 45.3479 22.7641C44.9805 22.9337 44.6978 23.3859 44.2738 23.4142C44.3304 23.3577 44.4152 23.3012 44.4717 23.2164C44.3021 23.2446 44.1608 23.3294 44.0477 23.499C43.6803 23.1316 45.1218 22.6228 45.2914 22.4815C44.9239 22.5945 44.613 22.7641 44.2738 22.9337C43.9629 23.1033 43.652 22.8207 43.3694 23.1033C43.5955 23.075 43.7933 22.962 44.0195 22.9337C43.5389 23.3294 43.0019 23.3012 42.4931 23.5273C43.0584 23.4707 42.2105 23.6969 42.0974 23.7817C42.3236 23.7817 42.5214 23.6121 42.7475 23.6121C42.691 23.6686 42.6345 23.7534 42.5779 23.8099C42.7193 23.7817 42.8606 23.7251 43.0019 23.6403C42.7193 24.1774 42.0409 24.0643 41.5604 24.2622C42.0126 24.1774 42.4084 24.1208 42.8323 24.0078C43.0302 24.5166 41.5887 24.6013 41.3625 24.8557C41.5039 24.8557 41.6452 24.7992 41.7865 24.7427C41.6735 24.8275 41.3343 25.1384 41.7865 24.8557C41.5321 25.0819 41.1647 25.2232 40.8538 25.308C40.6842 25.3362 40.5429 25.3645 40.3733 25.4493C40.0906 25.5906 39.8362 25.3928 39.5253 25.3645C39.6384 25.308 39.7232 25.2797 39.808 25.2232C39.497 25.2514 39.2427 25.421 39.0165 25.5906C39.1579 25.4493 39.2709 25.2797 39.4123 25.1101C39.1579 25.1384 38.2251 25.6189 38.1969 25.9298C38.1403 25.7602 38.2251 25.6189 38.3947 25.5624C38.2534 25.6189 38.0838 25.5624 37.9425 25.6472C37.8011 25.732 37.7729 25.9581 37.6316 26.0711C37.6598 25.6754 37.3206 25.9298 37.1793 26.0429C36.8684 26.269 36.3879 26.4103 36.0204 26.5234C36.2748 26.2972 36.5857 26.1559 36.8684 26.0146C36.4727 26.1277 36.1618 26.4103 35.7943 26.5516C35.8509 26.4668 35.9074 26.382 35.9639 26.3255C35.6247 26.269 35.3703 26.6647 35.0594 26.7495C34.5789 26.8626 34.5507 26.9756 34.0702 26.8626C34.2397 27.2017 33.9571 27.0604 33.7875 27.0039C33.5614 26.9473 33.307 27.1169 33.0809 27.1735C32.9113 27.23 32.7134 27.0604 32.7982 26.8908C32.8265 26.7778 33.0809 26.7495 33.1374 26.7212C33.9571 26.4668 34.7768 26.1277 35.5965 25.8733C35.1725 25.7885 34.6637 26.382 34.268 26.0429C33.9571 25.7602 35.7378 25.0253 35.9922 24.884C36.3596 24.7427 36.6988 24.5448 37.0097 24.3187C37.2076 24.1774 37.3206 23.7817 37.5468 23.7251C38.3664 23.4707 39.2427 23.2446 40.0623 23.0185C40.0623 23.3859 40.4015 23.2729 40.6276 23.2164C41.0234 23.1033 41.5887 23.2729 41.9844 23.4142C41.6735 23.075 40.5429 22.962 41.4473 22.5097C41.9561 22.2271 42.5779 22.114 43.1432 22.0292C42.6062 21.8031 42.0409 22.2271 41.5604 22.4249C41.3908 22.4815 40.4581 22.7641 40.6842 22.2836C40.4298 22.538 40.0058 22.5945 39.6666 22.6228C39.2709 22.6511 38.9883 22.962 38.5926 23.0468C38.1969 23.1316 37.8294 23.1316 37.462 23.3577C37.2076 23.5273 36.9814 23.6686 36.6988 23.7534C36.077 23.8947 35.6813 24.0078 35.229 24.4035C34.9746 24.6013 34.6072 24.6861 34.2963 24.7709C33.9571 24.884 33.7875 24.5448 33.5048 24.6579C33.9288 24.6014 33.844 25.1384 33.5896 25.2797C33.0526 25.5341 32.5438 25.5058 32.0068 25.6754C32.459 25.6472 32.1199 25.9581 31.9503 26.0146C31.7241 26.0711 31.4698 26.0146 31.2436 26.1277C31.8372 25.7602 31.1306 26.0711 31.0175 26.1277C30.7914 26.2407 30.4522 26.2407 30.2544 26.3538C30.1696 26.4103 30.1696 26.5516 30.0565 26.5799C29.8869 26.693 29.4912 26.7212 29.2934 26.7495C29.8304 26.7495 29.152 26.8908 29.0107 26.9473C28.7563 27.0321 28.4171 27.1735 28.2758 27.4561C28.5867 27.4279 29.0107 27.3148 29.2934 27.5126C29.7739 27.8236 28.8128 28.1627 28.6433 28.2193C28.2193 28.3606 27.7388 28.3606 27.3713 28.615C27.2017 28.7281 27.0039 28.6998 26.806 28.8694C26.5516 29.0955 26.2125 29.039 25.9298 29.2368C26.0711 29.1803 26.2125 29.152 26.382 29.1238C26.1559 29.2368 25.4776 29.8869 25.5341 29.4347C25.3362 29.7173 24.7144 29.7173 24.4035 29.7739C24.0643 29.8021 23.8382 29.9717 23.5273 30.113C23.1598 30.2826 22.7924 30.2544 22.4532 30.3957C22.0292 30.5653 21.6335 30.8762 21.2095 30.8762C20.9552 30.8762 20.8704 31.1306 20.6725 31.0458C20.3899 30.961 19.7963 31.3567 19.5419 31.4132C19.9659 31.3567 19.5419 31.6676 19.4006 31.7807C19.1745 31.922 18.8353 31.922 18.6091 32.0916C18.4113 32.2329 18.1569 32.2329 17.9025 32.2612C17.5633 32.3177 17.422 32.4873 17.1111 32.6004C16.9698 32.6569 16.9698 32.4025 16.8284 32.459C16.6871 32.5156 16.2914 32.6286 16.2349 32.7982C16.1783 33.0243 15.924 33.0526 15.7544 32.9961C15.3869 32.9113 15.2173 32.9961 14.8782 33.0809C15.4435 33.1374 14.6238 33.307 14.4542 33.307C14.0019 33.307 13.5214 33.5331 13.1257 33.7875C13.3236 33.7592 13.5214 33.5896 13.7476 33.6744C13.578 33.8158 13.4932 33.8723 13.7758 33.9006C13.578 34.0136 13.3518 34.0136 13.1257 34.0984C12.9561 34.1832 12.8431 34.4093 12.6452 34.4376C12.73 34.2115 12.9561 34.0701 13.154 34.0136C12.8996 33.844 12.5887 34.2397 12.4191 34.3811C12.1647 34.5507 11.769 34.6072 11.4863 34.6355C11.0906 34.6637 10.7514 34.6355 10.384 34.8333C10.0731 35.0312 9.79044 35.4269 9.36647 35.3986C9.59259 35.2856 9.8187 35.1442 10.0166 34.9464C9.76217 34.692 9.19687 34.9746 8.97075 35.0877C8.80116 35.1725 8.6881 35.2008 8.49025 35.2008C8.26413 35.2008 7.95321 35.4834 7.75535 35.5965C8.00974 35.1725 7.61403 35.5117 7.52924 35.5682C7.35965 35.6813 7.19005 35.6813 7.02046 35.5965C6.96393 35.5682 6.56822 35.7378 6.51169 35.7661C6.25731 35.8226 5.94639 35.7943 5.69201 35.8791C6.00292 35.5682 6.31383 35.4551 6.73781 35.4834C6.28557 34.8898 5.43761 35.6813 5.01364 35.9639C4.84405 36.077 4.61793 36.077 4.42008 36.1618C4.25049 36.2466 4.16569 36.4162 3.9961 36.5009C3.82651 36.5857 3.88304 36.2466 3.68518 36.5292C3.60039 36.6705 3.346 36.6988 3.17641 36.6423C3.43079 36.5575 3.40253 36.3031 3.45906 36.077C3.03508 35.9922 3.03508 36.8119 2.6111 36.6988Z" fill="white" stroke="white" stroke-width="0.16599"/>
<path d="M47.0721 76.5526C47.2417 75.9873 46.4785 75.5068 46.6199 74.885C46.7612 74.1784 47.383 73.5566 47.4113 72.8499C47.4113 72.5673 46.959 71.9454 47.0438 71.7476C47.3265 71.1823 47.6374 70.6735 48.231 70.4474C47.9766 70.5605 47.9483 70.5322 48.1744 70.3626C48.344 70.193 48.5136 70.0234 48.5701 69.7973C48.6549 69.4016 49.1072 69.1472 49.2768 68.808C49.4181 68.5254 49.2768 68.1297 49.4464 67.9035C49.729 67.5644 49.5594 67.4796 49.6442 67.0838C49.6725 66.8012 49.8986 66.6033 50.0399 66.3772C50.2378 66.1228 50.1813 65.8684 50.3226 65.5858C50.4639 65.2749 50.7183 64.9922 50.9444 64.7661C51.0292 64.653 51.5945 64.0877 51.4532 64.4269C51.5097 64.2856 51.6228 64.2856 51.7641 64.2573C51.8489 64.2291 52.0468 63.8334 51.651 64.1725C51.8772 63.8899 52.1315 63.4376 52.5273 63.4094C52.1033 63.5224 52.5273 63.155 52.6121 63.0137C52.7816 62.7875 52.9512 62.5614 53.1491 62.3636C53.4035 62.0527 53.5731 61.6287 53.884 61.3743C54.3362 60.9503 54.7602 60.272 55.0994 59.7349C55.2124 59.5653 55.4668 59.0566 55.7495 59.1131C55.6364 58.8022 56.0039 58.3782 56.2017 58.1803C56.4561 57.8977 56.5409 57.4737 56.9366 57.4455C57.2475 57.4455 57.8411 57.6998 58.0955 57.502C57.9259 57.5585 57.728 57.3889 57.5867 57.3041C57.3323 57.1911 57.191 57.2476 56.9366 57.3041C56.5692 57.3607 57.0214 56.654 57.0779 56.541C57.0214 56.6823 56.9649 56.8236 56.8801 56.9649C57.2475 56.8801 57.3889 56.117 57.7846 56.2866C57.6715 56.1735 57.5019 56.1453 57.3323 56.1735C57.4171 55.693 57.8128 55.7213 58.1803 55.6082C58.0107 55.6082 57.8411 55.5234 57.7563 55.3821C57.6998 55.4669 57.6432 55.5234 57.5867 55.6082C57.7846 54.9299 58.2933 54.2515 58.2368 53.5449C58.2085 53.2057 58.6325 52.1316 58.9717 52.2164C59.5087 52.3577 59.9044 52.6687 60.4697 52.7817C60.8372 52.8382 61.7134 52.7534 61.7134 53.0926C61.7699 52.923 61.883 52.81 62.0526 52.7817C61.9395 52.9513 62.0243 53.1492 61.9678 53.3187C61.9113 53.5166 61.4308 53.7427 61.2612 53.8558C61.7134 53.4035 61.0916 53.8275 61.0068 53.9123C60.7241 54.0819 60.4697 54.3363 60.1871 54.5341C60.385 54.7037 60.6111 54.5624 60.8089 54.4494C60.6676 54.5059 60.5263 54.5341 60.385 54.5907C60.385 54.2798 60.7524 54.1102 61.0068 54.0254C61.4025 53.8558 61.6851 53.6014 62.0526 53.347C62.1939 53.6862 61.3742 53.884 61.2612 54.2232C61.6569 54.0254 61.2612 54.7885 60.922 54.8168C60.9785 54.7603 61.035 54.7037 61.1198 54.6189C60.8372 54.6472 60.6959 54.9016 60.5263 55.0994C60.5263 54.9299 60.6111 54.7603 60.7524 54.6755C60.4415 54.7885 60.2436 55.0994 59.9327 55.156C60.1871 55.0994 60.1871 55.1277 59.9327 55.2973C60.1306 55.1277 60.1871 55.156 60.1023 55.3821C60.1588 55.1842 60.3567 55.0712 60.5828 55.1842C60.7241 55.269 61.0068 54.9864 61.0916 54.9016C61.459 54.6755 61.9678 54.5059 62.0243 53.9688C62.0809 53.5731 62.9005 53.3187 62.8157 53.0361C62.731 52.7817 63.0136 52.5556 62.9288 52.2729C62.8723 52.0751 62.5896 52.3295 62.7592 51.9903C63.2397 52.2164 63.2963 51.6228 63.5506 51.3967C63.2397 51.425 63.4376 50.9727 63.5789 50.8314L115.898 50.8032L116.011 49.8421C116.011 49.7008 116.463 49.7573 116.548 50.1248C116.632 50.577 115.926 51.3685 116.519 51.4533C116.689 51.4815 117.593 51.538 117.565 51.7924C117.537 52.1034 118.47 51.7076 118.639 51.6228C119.007 51.4815 119.431 51.8207 119.77 51.8772C119.685 52.0468 119.77 52.1599 119.939 52.1881C119.855 52.2729 119.883 52.6121 120.053 52.5556C120.109 52.5273 120.166 52.3577 120.25 52.3295C120.477 52.3295 120.59 52.4708 120.759 52.6121C120.9 52.7252 120.985 52.7252 121.042 52.7252C121.014 52.8382 121.042 52.9796 121.183 52.9796C121.748 52.9796 122.257 52.6121 122.794 52.6121C122.568 53.0078 123.275 52.923 123.473 52.8948C123.642 52.8948 123.84 52.8948 124.01 52.9796C124.434 53.2057 124.575 53.1492 124.886 53.0926C123.699 53.4601 122.483 53.8841 121.381 54.4776C120.929 54.7037 120.505 55.0147 120.053 55.269C119.572 55.5517 118.978 55.7213 118.526 56.0887C118.922 56.6823 120.759 55.693 121.268 55.6647C121.211 55.9474 120.901 56.2866 120.646 56.3996C120.787 56.4562 121.042 56.2866 121.127 56.3431C121.268 56.4844 121.24 56.5127 121.494 56.5127C121.89 56.5127 122.314 56.23 122.709 56.0887C123.133 55.8909 123.614 56.0039 124.038 55.8061C124.603 55.5234 125.14 55.3256 125.677 54.9864C125.593 55.1842 125.734 55.3256 125.79 55.5234C125.819 55.7213 125.593 55.8626 125.564 56.0322C125.649 55.9474 126.525 55.4104 126.016 55.8909C126.554 55.4669 126.949 55.8343 127.232 56.3148C127.486 56.7954 127.769 56.5975 128.193 56.7671C128.786 56.9932 129.352 56.4279 129.917 56.2866C130.256 56.2301 130.595 56.2866 130.906 56.2583C131.33 56.2301 131.754 56.117 132.178 56.0605C132.037 56.2866 131.896 56.5127 131.839 56.7671C132.235 56.8519 132.602 56.8236 132.97 56.7671C133.309 56.7106 133.224 57.3607 132.941 57.4172C133.196 57.4455 133.252 57.7564 133.394 57.8977C132.998 58.2651 132.348 57.6998 131.924 57.9542C131.896 57.9542 131.613 58.2651 131.641 58.2651C131.359 58.2651 131.359 57.8977 131.132 57.8129C130.426 57.5302 130.002 58.039 129.295 58.0108C128.589 57.9825 128.278 58.6326 127.628 58.8022C127.741 58.5761 127.995 58.4347 128.165 58.2369C127.741 58.3217 127.543 58.5761 127.147 58.6891C127.175 58.5478 127.232 58.3782 127.317 58.2651C126.61 58.5195 126.016 59.3957 125.451 59.8762C125.282 59.9893 125.253 60.1872 125.084 60.3002C124.914 60.4415 124.688 60.4133 124.518 60.5546C124.264 60.7525 123.897 61.0634 123.84 61.4308C124.321 61.3178 124.829 60.4698 125.395 60.6959C125.593 60.7807 124.914 61.4026 124.829 61.4874C124.603 61.7417 124.49 62.1375 124.208 62.3918C123.67 62.9006 123.444 63.4942 122.936 64.0595C122.681 64.3139 122.455 64.6813 122.37 65.0488C122.257 65.3879 122.342 65.7271 122.088 66.038C121.72 66.5185 121.494 67.5926 121.692 68.1862C121.862 68.695 122.568 68.384 122.879 68.2427C123.586 67.9318 124.123 67.3948 124.631 66.8012C124.914 66.4903 125.14 66.1511 125.31 65.7837C125.479 65.4727 125.479 64.7096 125.79 64.54C125.282 64.2291 125.734 63.6355 125.96 63.2963C126.13 63.0702 126.073 62.8441 126.186 62.618C126.299 62.3636 126.695 62.194 126.864 61.9679C127.062 61.7417 127.147 61.5156 127.26 61.2612C127.373 61.0069 127.599 60.9786 127.797 60.8373C128.023 60.6394 128.052 60.5263 128.362 60.4415C128.73 60.385 128.928 59.9893 129.267 59.848C129.041 60.1306 128.984 60.4981 128.702 60.7525C128.871 60.6677 128.984 60.5546 129.097 60.4133C129.069 60.5829 128.956 60.7525 128.843 60.8373C129.267 60.6677 129.437 60.2437 129.634 59.848C129.861 59.3675 130.398 59.5653 130.793 59.3392C130.143 59.2261 131.104 58.4913 131.387 58.4347C131.556 58.4065 131.952 58.6326 132.122 58.7456C132.489 58.9435 132.8 59.1979 133.224 59.3675C133.563 59.5371 133.705 59.9893 133.394 60.1306C133.083 60.3002 133.196 60.7525 133.139 61.0068C133.083 61.346 132.8 61.8831 132.489 61.9961C132.122 62.1092 132.009 62.4766 131.67 62.6462C131.33 62.7876 130.935 62.9571 130.85 63.3811C130.765 63.8899 131.472 63.4942 131.613 63.4376C131.924 63.3529 133.026 62.1657 133.365 62.6745C133.62 63.0419 133.252 64.0029 133.196 64.3987C133.139 64.9357 132.828 66.1794 132.122 66.2076C132.376 65.9815 132.037 65.8402 131.867 66.038C131.726 66.2359 131.67 66.462 131.472 66.6316C131.302 66.8012 131.048 66.886 130.878 67.0556C130.652 67.2252 130.539 67.4513 130.341 67.6209C130.171 67.7339 129.437 68.1862 129.861 68.3558C130.002 68.4123 130.171 68.4406 130.313 68.4971C130.398 68.5536 130.426 68.6102 130.482 68.6667C130.567 68.7515 130.793 68.6667 130.935 68.7515C130.708 68.7798 130.511 68.7798 130.313 68.8928C130.511 69.0059 130.708 68.8363 130.935 68.8645C131.076 68.8928 131.217 68.9493 131.359 68.9776C131.839 68.9776 132.263 68.7797 132.744 68.7797C133.224 68.808 133.648 68.384 134.044 68.1862C134.524 67.9601 135.033 67.847 135.542 67.6774C136.559 67.3665 137.577 66.999 138.51 66.4337C138.877 66.2076 139.329 65.9815 139.697 65.6989C139.895 65.5575 140.234 65.3597 139.838 65.3597C139.471 65.1336 139.838 64.7944 139.895 64.5117C140.064 64.2856 140.686 64.2856 141.025 64.2291C141.393 64.1725 141.788 64.1725 142.128 64.2291C142.41 64.2856 142.636 64.6248 142.919 64.54C143.286 64.4552 143.626 64.5117 143.993 64.4552C144.389 64.3987 144.728 64.1443 145.124 64.0029C145.406 63.8899 145.717 63.8899 145.83 63.5507C145.943 63.1833 146.169 62.9289 146.452 62.731C146.283 62.7875 146.028 62.8723 146.226 62.5614C146 62.731 145.972 62.5897 146.085 62.4484C146.198 62.307 146.396 62.0527 146.565 61.9679C147.668 61.4308 148.77 60.6394 150.07 60.3002L156.401 60.3285C156.515 60.1306 156.656 59.8197 156.854 59.6784C157.08 59.5653 157.362 59.6219 157.617 59.4805C157.645 59.5653 157.673 59.6219 157.702 59.6784C157.956 59.5936 157.871 59.3392 158.154 59.3675C158.041 59.3109 158.804 58.6043 159.002 58.5195C159.256 58.4065 159.454 58.1521 159.595 57.7846C159.652 57.5585 159.991 57.2476 160.302 57.0497C160.585 56.8519 160.613 56.4844 160.839 56.23C161.122 55.8626 161.574 55.6082 161.941 55.2973C162.252 55.0429 163.355 53.7992 163.27 54.7885C163.213 55.3256 164.429 54.7603 164.57 54.732C165.503 54.4776 165.361 55.6648 165.164 56.1735C164.994 56.6258 164.768 57.078 164.627 57.5302C164.542 57.7846 164.09 58.4347 164.259 58.6608C164.429 58.9435 164.796 58.7174 164.627 59.1131C164.485 59.3957 164.287 59.6784 164.514 59.961C164.683 59.7915 164.853 59.8762 164.909 60.1024C164.966 60.3568 164.711 60.4416 164.683 60.6677C164.938 60.4698 164.938 60.6959 164.824 60.8373C164.683 60.9786 164.457 61.0351 164.287 61.0634C164.061 61.1199 163.863 61.1482 163.666 61.2612C163.524 61.3743 163.015 61.7417 163.213 61.2895C163.015 61.346 162.902 61.5721 162.676 61.5721C162.535 61.5721 162.563 61.8548 162.365 61.9113C162.365 61.77 162.365 61.4591 162.168 61.4874C161.913 61.5722 161.772 61.9396 161.715 61.5439C161.715 61.7135 161.659 61.7135 161.517 61.6852C161.376 61.6852 161.376 62.0809 161.376 62.1657C161.037 61.9396 161.093 61.6852 161.15 61.346C161.065 61.5722 160.811 61.6004 160.641 61.77C160.472 61.9396 160.387 62.194 160.217 62.3918C159.822 62.8441 159.454 62.618 159.087 63.0985C159.058 62.9854 159.03 62.9571 159.087 62.8158C159.002 62.8723 158.945 62.9289 158.861 62.9854C159.002 62.4766 158.606 63.0419 158.578 63.155C158.606 62.9571 158.634 62.731 158.804 62.5614C158.691 62.618 158.606 62.7028 158.521 62.8158C158.747 62.7593 158.465 63.3529 158.352 63.4376C158.323 63.3529 158.323 63.2681 158.295 63.155C158.21 63.2398 157.871 63.5507 158.239 63.1267C157.9 63.6072 158.097 63.1833 158.154 63.0419C157.928 63.1833 157.476 63.3246 157.447 63.6355C157.447 63.7203 156.995 64.1443 156.91 64.2008C156.515 64.4269 155.13 65.6141 155.751 66.0663C155.553 66.2076 154.762 66.4903 154.79 66.8012C154.819 66.9425 155.13 66.9708 155.214 67.1121C155.412 67.423 155.13 67.8187 155.469 68.1579C155.78 68.4123 156.373 68.1579 156.43 67.7622C156.175 67.7622 156.401 67.5078 156.147 67.3665C156.571 67.3382 156.515 67.9883 156.373 68.2144C156.204 68.4971 155.13 68.6949 154.819 68.6384C154.875 68.4971 154.96 68.3558 155.016 68.2144C154.592 68.4406 154.14 68.7515 153.688 68.7797C153.773 68.5819 153.829 68.3275 153.999 68.1862C153.801 68.271 153.575 68.5536 153.547 68.1862C153.179 68.6384 153.151 69.0624 152.473 69.1755C152.331 69.1755 151.229 69.3733 151.257 69.1189C151.257 69.3733 150.861 69.3733 150.664 69.3733C150.268 69.3733 150.07 69.3733 149.674 69.5429C148.911 69.8256 148.176 70.0799 147.526 70.5887C147.837 70.1647 148.148 69.7973 148.063 69.2603C147.809 69.7125 147.978 70.5604 147.3 70.7583C146.763 70.9279 146.707 71.3236 147.3 71.3801C147.187 71.9172 146.848 72.3977 146.565 72.8217C146.622 72.7086 146.707 72.5673 146.763 72.4259C146.311 72.4259 146.198 73.6696 145.689 73.6131C145.519 73.6131 145.124 74.2632 145.011 74.3762C144.756 74.6589 144.445 74.9981 144.05 75.0263C144.106 74.885 144.445 74.5741 144.247 74.4328C143.937 74.2066 143.71 74.2066 143.484 73.8392C143.089 73.1891 144.134 72.963 144.474 72.6803C143.965 72.8782 143.089 73.1891 143.343 73.924C143.484 74.3197 143.343 74.7437 143.513 75.1677C143.654 75.5068 143.569 75.7612 143.343 75.8743C143.654 75.9591 143.513 76.2417 143.371 76.3831C143.597 75.9308 143.343 76.3548 143.286 76.4679C143.23 76.6092 143.004 76.7222 142.862 76.8353C142.552 77.1462 142.325 77.4571 142.043 77.8246C141.788 78.1355 141.449 78.3616 141.223 78.6725C141.082 78.8704 140.912 79.3509 140.63 79.3509C140.545 78.8987 140.969 78.4181 141.223 78.1072C141.364 77.9376 141.732 77.4289 141.901 77.4006C141.732 77.3158 141.591 77.3441 141.421 77.4571C141.477 77.2593 142.015 76.8636 141.477 76.8636C141.591 76.7222 141.675 76.5809 141.704 76.4396C141.506 76.7788 141.393 76.27 141.336 76.7505C141.28 76.6374 140.997 76.4396 141.025 76.3265C141.082 76.1287 141.364 76.0156 141.195 75.7895C141.364 75.7895 141.477 75.8178 141.619 75.9025C141.562 75.733 141.364 75.3655 141.138 75.5068C141.251 75.2242 141.393 75.3938 141.591 75.2807C141.901 75.1111 141.421 74.9698 141.223 75.1111C141.336 74.7719 141.788 74.9133 141.845 74.5176C141.788 74.5741 141.732 74.6306 141.647 74.6872C141.477 74.1219 142.297 73.9805 142.665 73.924C142.608 73.8957 142.523 73.8392 142.467 73.7827C142.636 73.6979 142.749 73.5848 142.862 73.4435C142.721 73.5283 142.58 73.6131 142.438 73.6979C142.495 73.6131 142.552 73.5565 142.608 73.4718C142.41 73.4435 142.297 73.5565 142.184 73.7261C142.128 73.8392 141.732 74.1784 141.986 73.7544C141.873 73.8392 141.788 73.9523 141.732 74.0653C141.647 73.6979 141.28 74.1501 141.308 74.3197C141.223 74.2914 141.167 74.2632 141.082 74.2066C141.11 74.3762 141.195 74.5176 141.28 74.6306C141.025 74.6589 141.054 74.6871 141.223 74.8567C140.658 74.4893 140.799 76.2983 140.658 76.4679C140.347 76.27 140.29 75.9873 140.403 75.6482C140.319 75.9026 140.234 76.1569 140.46 76.4113C140.601 76.5809 140.827 76.8636 140.545 77.0897C140.488 76.7788 139.725 76.7788 139.866 76.4113C139.753 76.3831 139.725 76.4396 139.782 76.6092C139.64 76.5244 139.527 76.3831 139.471 76.2417C139.131 76.5244 138.99 76.1569 139.273 75.8743C139.499 75.6764 140.008 75.4786 139.81 75.0829C139.838 75.4786 138.707 76.1852 138.934 76.4113C139.103 76.5526 139.329 76.3831 139.442 76.5809C139.64 76.9201 139.725 76.8353 140.064 76.9201C140.234 76.9484 140.319 77.2875 140.46 77.4006C140.686 77.5702 140.63 77.6833 140.46 77.8811C139.923 78.4747 139.612 77.5985 139.414 77.1745C139.386 77.5419 139.697 78.1355 140.036 78.3051C140.432 78.5312 140.347 78.8704 139.838 78.7856C139.866 78.8704 139.895 78.9552 139.923 79.0117C139.612 79.2096 139.442 78.7573 139.301 78.5877C139.499 78.9834 140.319 79.5487 139.584 79.8031C139.329 79.0965 138.849 79.153 138.199 78.8986C138.255 79.04 138.708 79.0682 138.877 79.1813C139.103 79.3509 139.584 79.7749 139.301 80.0858C139.442 79.9445 139.612 79.9445 139.725 80.114C139.697 79.7749 140.036 79.8879 140.206 79.9445C140.46 80.001 140.403 80.1988 140.403 80.425C140.403 80.7359 140.375 81.0185 140.347 81.3294C140.319 81.6969 140.545 82.1209 140.403 82.5166C140.403 82.1774 140.375 81.8382 140.29 81.5273C140.206 81.2164 140.432 80.8772 140.206 80.6228C140.206 80.7076 140.149 80.9337 140.036 80.7359C140.008 81.1316 140.29 81.5556 140.092 81.923C140.121 81.7817 140.064 81.6404 139.979 81.499C139.895 81.7252 139.725 81.7534 139.584 81.5556C139.612 81.6404 139.64 81.7252 139.669 81.7817C139.527 81.8947 139.386 81.8665 139.245 81.7252C139.442 82.1491 139.047 81.8382 138.905 81.7534C138.962 81.81 139.018 81.8947 139.075 81.9513C138.877 82.0078 138.708 82.2339 138.481 82.0926C138.255 81.9513 138.34 81.6404 138.481 81.4708C138.368 81.5556 138.086 82.2057 138.255 82.3187C138.425 82.4318 138.651 82.2057 138.792 82.2622C138.934 82.3187 139.555 82.0926 139.527 82.3753C139.527 82.5731 139.414 82.8558 139.273 83.0254C139.442 82.9406 139.527 82.7992 139.584 82.6296C139.64 82.4035 139.895 82.4601 140.036 82.3187C140.177 82.6296 139.895 82.8558 139.838 83.1667C139.555 82.9406 139.358 83.4211 139.216 83.5907C138.934 83.8733 138.425 83.7037 138.142 83.5341C138.17 83.4493 138.227 83.3928 138.284 83.308C138.114 83.3645 138.001 83.4776 138.057 83.6472C137.775 83.5059 137.464 83.5341 137.209 83.3645C137.379 83.5059 138.368 83.9016 137.944 84.0712C137.775 84.1277 137.888 84.3256 137.746 84.4386C137.407 84.6647 137.238 84.6365 136.899 84.3821C136.927 84.6647 137.125 84.7778 137.379 84.7495C137.577 84.7213 138.142 84.4669 138.057 84.7495C138.142 84.693 138.227 84.6365 138.34 84.6082C138.227 84.806 138.029 85.0322 137.86 85.117C137.746 85.1735 137.125 85.1452 137.266 85.2866C136.955 85.23 136.503 85.2018 136.277 85.3996C136.107 85.5409 135.768 85.7953 135.881 85.3714C135.768 85.4562 135.768 85.6257 135.74 85.7388C135.711 85.8801 135.429 85.9367 135.316 85.9932C134.863 86.2476 134.581 86.6998 134.326 87.1238C134.355 86.9825 134.383 86.8411 134.383 86.7281C134.185 87.4912 133.45 87.2651 132.8 87.4347C132.093 87.6608 131.613 88.3109 131.161 88.9045C131.076 88.7349 131.104 88.5936 131.246 88.4805C131.019 88.6218 131.189 89.0741 130.935 89.1306C130.793 89.1589 130.85 89.2437 130.737 89.3285C130.595 89.4981 130.539 89.3285 130.369 89.4133C130.228 89.5263 129.493 90.4308 129.38 89.8655C129.465 90.3178 129.097 90.4025 128.786 90.5439C128.589 90.6569 128.419 90.77 128.193 90.7135C128.08 90.7135 127.486 90.7135 127.995 90.7983C127.373 90.9396 128.447 90.8548 127.797 91.1092C128.278 91.0526 127.458 91.4766 127.543 90.9961C127.486 91.5331 127.317 90.9113 127.317 90.7983C127.317 90.9678 127.373 91.1374 127.373 91.307C127.373 91.5331 126.893 91.9006 127.175 91.4766C126.864 91.9571 126.836 92.1267 126.243 92.3246C126.271 92.3811 126.299 92.4376 126.327 92.5224C126.214 92.6072 126.073 92.6072 125.932 92.5507C125.903 92.6355 125.932 92.7203 125.932 92.7768C126.016 92.7485 126.101 92.7203 126.158 92.692C126.13 92.9464 125.875 93.0595 125.649 93.0312C125.903 93.1725 125.762 93.5682 125.564 93.3704C125.649 93.7096 125.451 93.5682 125.225 93.5117C125.366 93.5682 125.479 93.653 125.564 93.7943C125.395 93.9922 125.14 93.9639 125.055 94.2466C124.971 94.4445 124.66 94.9532 124.801 95.1511C124.886 95.2359 124.886 95.2924 124.801 95.3489C124.603 95.4903 124.745 95.5185 124.773 95.7446C124.858 96.1969 124.745 96.7056 124.745 97.1296C124.716 98.0906 124.971 99.0517 125.282 99.9279C125.451 100.352 125.423 100.465 125.31 100.861C125.169 101.285 125.31 101.652 125.366 102.048C125.197 101.652 125.112 101.2 125.282 100.776C125.508 100.267 124.999 100.38 124.999 99.9844C124.999 100.719 125.084 101.454 125.282 102.161C125.395 102.557 125.677 103.348 125.366 103.715C126.045 103.602 125.197 106.457 125.055 106.74C124.829 107.249 124.518 108.323 124.038 108.605C123.868 108.69 123.925 108.294 123.727 108.577C123.586 108.775 123.36 108.577 123.162 108.662C122.823 108.775 122.342 108.605 122.681 108.238C122.766 108.379 122.879 108.492 123.02 108.52C123.105 108.323 122.738 108.096 122.653 107.927C122.455 107.559 122.596 107.164 122.172 106.881C121.918 106.74 121.664 106.711 121.635 106.372C121.607 106.033 121.805 105.553 121.409 105.355C121.635 105.27 121.777 105.016 121.975 104.903C121.777 104.959 121.635 105.213 121.438 105.27C121.24 105.355 121.438 104.394 121.551 104.252C121.409 104.365 121.268 104.337 121.127 104.224C121.438 104.563 120.957 104.648 120.816 104.224C120.674 103.857 120.844 103.235 120.448 102.98C120.759 102.952 121.381 102.217 121.211 101.906C121.127 101.935 121.07 101.991 120.985 102.048C121.014 101.85 120.9 101.737 120.759 101.652C120.646 101.793 120.646 101.906 120.816 102.019C120.929 102.104 120.646 102.415 120.59 102.5C120.505 102.33 120.42 102.133 120.448 102.5C120.194 101.652 121.014 100.861 121.211 100.097C121.268 99.8148 121.268 99.5887 121.211 99.306C121.127 98.8255 120.929 98.9951 120.646 98.7125C120.222 98.2885 120.081 97.7232 119.826 97.2144C119.713 96.96 119.459 96.7057 119.176 96.5926C118.809 96.4795 118.555 96.8752 118.187 96.8187C118.244 97.1296 117.961 97.0731 117.707 97.2144C117.622 97.2992 117.17 97.5819 117.226 97.3275C116.915 97.5253 116.548 97.6101 116.209 97.6101C116.406 97.3275 116.237 96.96 115.954 96.8187C116.095 96.847 116.067 96.7622 115.898 96.5926C116.152 96.8187 116.265 96.5643 115.982 96.5361C115.558 96.4795 115.869 96.1969 116.095 96.1403C115.898 96.1403 115.7 96.1686 115.502 96.1686C115.558 96.2252 115.615 96.2817 115.671 96.3665C115.276 96.4513 114.597 95.999 114.258 95.8294C114.315 95.8294 115.021 95.9425 114.965 95.8012C114.908 95.6881 114.682 95.6033 114.569 95.575C114.343 95.5185 114.173 95.7164 113.976 95.7729C113.665 95.9142 113.212 95.9142 112.901 95.886C113.071 95.886 113.269 95.8294 113.439 95.7446C113.241 95.6881 113.184 95.5468 113.297 95.3772C113.212 95.4903 113.099 95.6316 113.015 95.7446C113.156 95.1793 112.788 95.7164 112.675 95.8294C112.506 96.0273 112.308 96.1121 112.054 96.0838C112.223 96.0556 112.591 95.886 112.364 95.6599C112.195 96.1404 111.573 96.3947 111.121 96.1969C111.573 96.3665 111.375 95.2641 111.29 95.038C111.177 95.2641 111.036 95.5468 110.895 95.7729C110.81 95.9425 110.499 95.8294 110.329 95.9425C110.245 95.9708 109.792 95.999 109.849 95.9142C109.679 96.1686 109.453 95.7446 109.284 95.8294C109.368 95.8577 108.718 95.999 108.577 96.0273C108.266 96.0556 108.209 96.2534 107.87 96.3665C107.305 96.5643 107.107 95.886 106.598 95.886C106.401 95.9142 105.779 96.423 106.09 96.5926C106.287 96.7057 106.655 96.7057 106.853 96.6209C107.022 96.5361 107.418 96.5926 107.531 96.4795C107.446 96.5926 107.022 96.7622 107.079 96.9035C107.192 97.271 107.362 97.0731 107.531 96.8752C107.757 96.6491 108.096 96.96 107.927 97.2427C107.786 97.4688 107.305 97.271 107.39 97.6667C107.135 97.5536 107.107 97.7515 107.164 97.9776C107.277 98.3168 107.531 98.345 107.842 98.4298C107.983 98.4864 108.068 98.7125 108.181 98.8255C108.294 98.9386 107.87 99.1647 107.899 99.306C107.672 98.9951 107.446 99.306 107.248 99.4474C107.362 99.306 107.503 99.1364 107.559 98.9669C107.362 98.9386 107.418 98.8538 107.362 98.7125C107.305 98.6559 106.824 98.4864 106.74 98.4864C106.881 98.2037 106.118 97.8363 106.005 97.9211C105.977 97.9776 106.174 98.2602 106.146 98.3733C106.09 98.6842 106.005 98.9669 105.666 99.0517C105.637 98.7407 105.694 98.6559 105.355 98.5994C104.846 98.4864 105.072 98.8821 104.705 98.9669C104.139 99.0799 103.517 98.4298 103.828 97.8645C103.715 98.1189 103.404 98.0059 103.235 97.8645C103.122 97.7515 103.065 97.6101 103.122 97.4688C102.896 97.4405 102.528 97.6101 102.783 97.271C102.528 97.271 101.906 97.4971 102.161 97.8363C101.793 97.7797 101.454 97.9776 101.03 97.8645C100.55 97.7515 100.126 97.4406 99.6452 97.2992C99.8713 97.1014 99.9561 96.9318 99.843 96.6209C99.7582 96.847 99.73 97.3558 99.4473 97.4406C99.1929 97.4971 98.7407 97.5536 98.4863 97.4123C98.5993 97.2427 98.8537 97.1014 98.8255 96.847C98.5428 96.9883 98.2884 97.2992 98.5145 97.6101C97.7514 97.6949 96.9882 97.9493 96.3664 98.4016C96.5643 98.1754 96.8469 98.0059 97.1296 97.9211C96.9035 97.8645 96.7056 97.921 96.5077 97.9776C96.6208 97.808 96.7904 97.6101 96.7056 97.3558C96.536 97.4123 96.5077 97.5819 96.3664 97.6384C96.1968 97.7232 96.1968 97.4405 96.0555 97.6101C95.9142 97.7515 96.0838 98.2885 96.2816 98.345C95.9142 98.7125 95.5185 98.9386 95.1793 99.306C94.727 99.8148 93.8508 99.7018 93.4551 100.182C93.5964 100.154 93.7378 100.097 93.8791 100.069C93.5399 100.239 93.2007 100.408 92.8333 100.521C93.0029 100.38 93.2007 100.324 93.3703 100.154C93.229 100.182 93.0877 100.239 92.9463 100.295C93.2573 100.097 92.5789 100.154 92.4941 99.9279C92.5506 100.069 92.4941 100.182 92.4093 100.295C92.4658 99.6735 91.6461 100.635 92.4093 100.606C92.1549 100.861 91.7592 100.974 91.5896 100.578C91.6179 100.917 91.0243 101.652 91.1091 101.2C90.9678 101.539 90.6003 101.2 90.459 101.567C90.6286 101.624 90.7699 101.567 90.9113 101.454C90.8265 102.076 90.2046 101.963 89.7241 102.104C89.8089 102.104 89.8937 102.133 89.9785 102.133C89.922 102.274 90.035 102.387 90.0916 102.5C90.1198 102.67 89.8372 103.009 89.7524 103.122C89.5545 103.433 89.1023 103.461 88.9327 103.094C89.0458 103.235 89.0458 103.376 88.9327 103.518C89.1306 103.574 89.3284 103.631 89.5263 103.518C89.4697 103.715 89.3567 104.111 89.1306 104.224C88.961 104.309 89.1306 104.789 89.1306 104.931C89.1306 105.383 88.8479 106.316 89.2153 106.683C89.2719 106.627 89.3567 106.57 89.4132 106.485C89.4697 106.711 88.9327 106.909 88.7914 106.938C88.5087 106.966 88.3109 106.485 87.9717 106.485C87.7173 106.485 87.3498 106.542 87.0955 106.401C86.7845 106.231 86.4454 105.807 86.1062 105.75C85.4561 105.637 85.6539 105.185 85.3996 104.62C85.2017 104.224 85.1734 103.857 85.2582 103.461C85.3148 103.263 85.3996 103.094 85.343 102.924C85.3148 102.754 85.0038 102.613 84.919 102.359C84.6647 101.709 84.2689 101.172 84.0994 100.324C84.0428 99.9844 84.0711 99.617 83.9863 99.2778C83.9298 99.0799 83.845 98.9669 83.7884 98.7973C83.7319 98.5994 83.5341 98.4298 83.4493 98.2885C83.2514 97.9211 83.0253 97.7797 82.8274 97.4406C82.7992 97.4123 82.2339 97.3558 82.1773 97.3558C81.499 97.2427 80.8206 97.1862 80.2271 97.5536C79.6052 97.9493 79.577 98.9103 78.7573 99.2778C78.4463 99.4191 78.0506 99.0517 77.8245 98.8821C77.5984 98.7407 77.3723 98.6277 77.1462 98.4864C76.5243 98.0059 76.2134 97.5536 76.1851 96.96C76.3547 96.5361 76.2699 96.0838 76.2417 95.6599C76.2982 95.2359 75.9873 95.038 75.6481 94.9249C75.3089 94.7836 75.0263 94.1053 74.7719 93.653C73.7543 93.116 74.4044 92.5507 73.613 92.4659H69.9103L69.8538 93.5682L64.1442 93.54L57.4171 90.7135C57.5019 90.4873 57.6998 90.3743 57.8411 90.2047C56.1169 90.2612 54.421 90.4873 52.6969 90.6569C52.6969 90.1764 52.8664 89.7242 52.8664 89.2437C52.8664 88.6784 52.4707 88.4523 52.1315 88.0283C51.8206 87.6043 51.8206 87.8587 51.3967 87.7174C51.1423 87.6043 51.7358 86.8977 50.9444 86.9259C50.4639 86.9259 50.2661 86.7846 50.0117 86.3889C49.7573 85.9649 49.192 86.0497 48.768 85.9649C48.4854 85.9084 47.6091 86.078 47.7222 85.5127C47.7787 85.1452 48.1744 84.8343 48.1744 84.4669C48.2027 84.0994 47.7505 84.156 47.9766 83.7885C48.1179 83.5341 47.807 83.2515 47.6374 83.0536C47.4678 82.8558 47.4961 82.6296 47.4678 82.3753C47.4395 82.0078 46.959 81.6404 47.0721 81.3012C47.2134 80.7924 47.27 80.7924 47.6374 80.4532C48.0614 80.0293 47.6939 79.9445 47.3548 79.7183C46.846 79.3509 47.27 79.04 47.1852 78.616C47.1286 78.3616 47.4113 77.768 47.7222 77.768C47.7222 77.9094 47.5809 78.0224 47.5809 78.1638C47.6374 78.3333 47.8353 78.4747 47.9483 78.5877C48.1179 78.0507 47.7787 77.4289 48.4571 77.1179C47.8353 76.4961 47.92 77.7115 47.5526 77.6267C47.2982 77.5702 47.0156 76.9201 46.7612 77.2875C46.9025 77.1179 47.0721 76.6374 47.2134 77.0614C47.2134 76.8918 47.2134 76.694 47.0721 76.5526Z" fill="white" stroke="white" stroke-width="0.16599"/>
<path d="M96.7832 67.4098V67.4098C171.868 31.93 257.029 23.9441 337.401 44.8459L350.503 48.2531" stroke="white" stroke-dasharray="5 5"/>
</svg>
