<svg width="193" height="31" viewBox="0 0 193 31" fill="none" xmlns="http://www.w3.org/2000/svg">
<path d="M16.92 23.052L25.758 3H33.624L21.06 30H12.6L0.036 3H8.046L16.92 23.052ZM35.6785 30V9.12L39.3505 9.84L43.0405 9.12V30H35.6785ZM39.3505 7.446C38.4985 7.446 37.7485 7.302 37.1005 7.014C36.4525 6.714 35.9485 6.294 35.5885 5.754C35.2285 5.214 35.0485 4.584 35.0485 3.864C35.0485 3.144 35.2285 2.52 35.5885 1.992C35.9485 1.452 36.4525 1.038 37.1005 0.749998C37.7485 0.449998 38.4985 0.299998 39.3505 0.299998C40.2025 0.299998 40.9525 0.449998 41.6005 0.749998C42.2485 1.038 42.7465 1.452 43.0945 1.992C43.4545 2.52 43.6345 3.144 43.6345 3.864C43.6345 4.584 43.4545 5.214 43.0945 5.754C42.7465 6.294 42.2485 6.714 41.6005 7.014C40.9525 7.302 40.2025 7.446 39.3505 7.446ZM63.0703 8.832C65.0623 8.832 66.8263 9.288 68.3623 10.2C69.8983 11.1 71.0923 12.378 71.9443 14.034C72.7963 15.678 73.2223 17.574 73.2223 19.722C73.2223 21.858 72.7963 23.754 71.9443 25.41C71.0923 27.054 69.8983 28.332 68.3623 29.244C66.8263 30.144 65.0623 30.594 63.0703 30.594C61.2703 30.594 59.6383 30.198 58.1743 29.406C56.7103 28.614 55.4743 27.486 54.4663 26.022V30H47.1043V2.28H54.4663V13.332C55.4623 11.892 56.6983 10.782 58.1743 10.002C59.6503 9.222 61.2823 8.832 63.0703 8.832ZM60.8383 24.96C61.7983 24.96 62.6563 24.738 63.4123 24.294C64.1683 23.838 64.7563 23.214 65.1763 22.422C65.5963 21.63 65.8063 20.73 65.8063 19.722C65.8063 18.714 65.5963 17.814 65.1763 17.022C64.7563 16.218 64.1683 15.594 63.4123 15.15C62.6563 14.694 61.7983 14.466 60.8383 14.466C59.8663 14.466 58.9303 14.694 58.0303 15.15C57.1423 15.594 56.3563 16.218 55.6723 17.022C55.0003 17.814 54.4963 18.714 54.1603 19.722C54.4963 20.73 55.0003 21.63 55.6723 22.422C56.3563 23.214 57.1423 23.838 58.0303 24.294C58.9303 24.738 59.8663 24.96 60.8383 24.96ZM83.4446 21.81C83.9486 22.902 84.8006 23.742 86.0006 24.33C87.2006 24.906 88.7126 25.194 90.5366 25.194C92.0486 25.194 93.5546 24.996 95.0546 24.6C96.5546 24.204 97.9226 23.64 99.1586 22.908V27.588C97.7186 28.56 96.0926 29.304 94.2806 29.82C92.4686 30.336 90.5246 30.594 88.4486 30.594C85.9646 30.594 83.7386 30.138 81.7706 29.226C79.8026 28.302 78.2606 27.012 77.1446 25.356C76.0286 23.7 75.4706 21.798 75.4706 19.65C75.4706 17.538 76.0046 15.66 77.0726 14.016C78.1526 12.372 79.6406 11.1 81.5366 10.2C83.4326 9.288 85.5686 8.832 87.9446 8.832C90.3566 8.832 92.4446 9.366 94.2086 10.434C95.9726 11.49 97.3226 12.996 98.2586 14.952C99.2066 16.896 99.6806 19.182 99.6806 21.81H83.4446ZM88.1066 14.016C86.8466 14.016 85.7786 14.322 84.9026 14.934C84.0386 15.534 83.4446 16.35 83.1206 17.382H92.8406C92.5046 16.302 91.9286 15.474 91.1126 14.898C90.3086 14.31 89.3066 14.016 88.1066 14.016ZM142.231 18.696C141.967 21.06 141.151 23.142 139.783 24.942C138.415 26.73 136.609 28.122 134.365 29.118C132.121 30.102 129.583 30.594 126.751 30.594C123.643 30.594 120.901 30.006 118.525 28.83C116.149 27.654 114.307 26.004 112.999 23.88C111.703 21.744 111.055 19.284 111.055 16.5C111.055 13.716 111.703 11.262 112.999 9.138C114.307 7.002 116.149 5.346 118.525 4.17C120.901 2.994 123.643 2.406 126.751 2.406C129.583 2.406 132.121 2.904 134.365 3.9C136.609 4.884 138.415 6.276 139.783 8.076C141.151 9.864 141.967 11.94 142.231 14.304H134.725C134.365 12.6 133.495 11.268 132.115 10.308C130.735 9.348 128.941 8.868 126.733 8.868C125.065 8.868 123.619 9.18 122.395 9.804C121.183 10.416 120.247 11.298 119.587 12.45C118.939 13.59 118.615 14.94 118.615 16.5C118.615 18.06 118.939 19.416 119.587 20.568C120.247 21.708 121.183 22.59 122.395 23.214C123.619 23.826 125.065 24.132 126.733 24.132C128.965 24.132 130.765 23.67 132.133 22.746C133.513 21.81 134.377 20.46 134.725 18.696H142.231ZM171.451 9.426L170.155 19.704L171.451 30H163.819L163.279 25.842C162.283 27.354 161.041 28.524 159.553 29.352C158.065 30.18 156.403 30.594 154.567 30.594C152.575 30.594 150.805 30.144 149.257 29.244C147.721 28.332 146.527 27.054 145.675 25.41C144.823 23.754 144.397 21.858 144.397 19.722C144.397 17.574 144.823 15.678 145.675 14.034C146.527 12.378 147.721 11.1 149.257 10.2C150.805 9.288 152.575 8.832 154.567 8.832C156.391 8.832 158.053 9.24 159.553 10.056C161.053 10.872 162.301 12.03 163.297 13.53L163.819 9.426H171.451ZM156.781 24.96C157.753 24.96 158.683 24.738 159.571 24.294C160.471 23.838 161.257 23.214 161.929 22.422C162.613 21.63 163.123 20.73 163.459 19.722C163.123 18.714 162.613 17.814 161.929 17.022C161.257 16.218 160.471 15.594 159.571 15.15C158.683 14.694 157.753 14.466 156.781 14.466C155.821 14.466 154.963 14.694 154.207 15.15C153.463 15.594 152.881 16.218 152.461 17.022C152.041 17.814 151.831 18.714 151.831 19.722C151.831 20.73 152.041 21.63 152.461 22.422C152.881 23.214 153.463 23.838 154.207 24.294C154.963 24.738 155.821 24.96 156.781 24.96ZM189.817 8.832C190.609 8.832 191.455 8.928 192.355 9.12V15.402C191.011 15.126 189.763 14.988 188.611 14.988C186.859 14.988 185.443 15.516 184.363 16.572C183.283 17.628 182.743 19.284 182.743 21.54V30H175.381V16.356L174.031 9.426H181.519L182.419 14.844C183.811 10.836 186.277 8.832 189.817 8.832Z" fill="white"/>
</svg>
